<svg xmlns="http://www.w3.org/2000/svg" width="50" height="50" viewBox="0 0 50 50"><defs><style>.a{fill:#fff;}.b{fill:#1d1c1e;}</style></defs><g transform="translate(-1076 -980)"><g transform="translate(-90 575)"><circle class="a" cx="25" cy="25" r="25" transform="translate(1166 405)"/><g transform="translate(1172.586 412)"><g transform="translate(0.414 0)"><path class="b" d="M19.635.472A2.985,2.985,0,0,0,16.356.51L1.664,10.475a2.822,2.822,0,0,0-1.25,2.333V23.545a2.822,2.822,0,0,0,1.31,2.372l14.932,9.612a2.984,2.984,0,0,0,3.22,0l15.228-9.8a2.825,2.825,0,0,0,1.31-2.372V12.81a2.823,2.823,0,0,0-1.309-2.37ZM31.01,12.1l-5.628,3.68L20.1,12.044l-.034-7.352ZM16.251,4.7v7.2l-5.409,3.683L5.447,12.054ZM3.968,15.6,7.46,17.879,3.968,20.258ZM16.343,30.94,5.449,23.826l5.442-3.7,5.452,3.562ZM14.274,17.819l3.527-2.4,4.108,2.63-3.641,2.382ZM20.191,30.94V23.681l5.21-3.4,5.61,3.591ZM32.566,20.381l-3.7-2.367,3.7-2.416Z" transform="translate(-0.414 0)"/></g></g></g></g></svg>