<svg xmlns="http://www.w3.org/2000/svg" width="50" height="50" viewBox="0 0 50 50"><defs><style>.a{fill:#fff;}</style></defs><path class="a" d="M25,0A25,25,0,1,0,50,25,25.029,25.029,0,0,0,25,0ZM41.528,11.528a21.247,21.247,0,0,1,4.819,13.3,49.839,49.839,0,0,0-14.869-.687l-.459-1.1C30.575,22,30.1,20.966,29.6,19.947,37.5,16.725,41.078,12.137,41.528,11.528ZM25,3.678A21.251,21.251,0,0,1,39.153,9.059c-.381.547-3.594,4.866-11.187,7.712A114.061,114.061,0,0,0,20,4.272,21.313,21.313,0,0,1,25,3.678ZM15.922,5.706a136.164,136.164,0,0,1,7.916,12.35A79.647,79.647,0,0,1,4.1,20.659,21.431,21.431,0,0,1,15.922,5.706ZM3.644,25.031l.009-.653A78.634,78.634,0,0,0,25.6,21.341c.616,1.2,1.2,2.412,1.734,3.625l-.844.253C15.478,28.778,9.619,38.484,9.131,39.309A21.3,21.3,0,0,1,3.644,25.031ZM25,46.384a21.241,21.241,0,0,1-13.106-4.506c.384-.781,4.709-9.137,16.753-13.334l.141-.047a88.9,88.9,0,0,1,4.556,16.194A21.183,21.183,0,0,1,25,46.384Zm11.934-3.65a92.654,92.654,0,0,0-4.147-15.225,31.3,31.3,0,0,1,13.3.916A21.4,21.4,0,0,1,36.931,42.734Z"/></svg>